<mxfile host="app.diagrams.net" agent="Mozilla/5.0 (Windows NT 10.0; Win64; x64) AppleWebKit/537.36 (KHTML, like Gecko) Chrome/129.0.0.0 Safari/537.36" version="24.7.16">
  <diagram name="Page-1" id="MXw8bYAZeLGTPMeYbXxy">
    <mxGraphModel dx="936" dy="579" grid="1" gridSize="10" guides="1" tooltips="1" connect="1" arrows="1" fold="1" page="1" pageScale="1" pageWidth="850" pageHeight="1100" math="0" shadow="0">
      <root>
        <mxCell id="0" />
        <mxCell id="1" parent="0" />
        <mxCell id="GrtUD7RfstWwwJECri5v-1" value="Alice&lt;div&gt;(Software&lt;/div&gt;&lt;div&gt;Architect)&lt;/div&gt;" style="image;html=1;image=img/lib/clip_art/people/Suit_Woman_Black_128x128.png" vertex="1" parent="1">
          <mxGeometry x="285" y="140" width="80" height="80" as="geometry" />
        </mxCell>
        <mxCell id="GrtUD7RfstWwwJECri5v-2" value="Bob&lt;div&gt;(ML Engineer)&lt;/div&gt;" style="image;html=1;image=img/lib/clip_art/people/Suit_Man_128x128.png" vertex="1" parent="1">
          <mxGeometry x="540" y="230" width="80" height="80" as="geometry" />
        </mxCell>
        <mxCell id="GrtUD7RfstWwwJECri5v-3" value="I need to make a&lt;div&gt;Design Decision&amp;nbsp;&lt;span style=&quot;background-color: initial;&quot;&gt;for my software.&lt;/span&gt;&lt;div&gt;&lt;div&gt;But I am not sure about the&lt;/div&gt;&lt;div&gt;Decision.&amp;nbsp;&lt;span style=&quot;background-color: initial;&quot;&gt;Can Generative&lt;/span&gt;&lt;/div&gt;&lt;div&gt;&lt;span style=&quot;background-color: initial;&quot;&gt;AI help?&lt;/span&gt;&lt;/div&gt;&lt;/div&gt;&lt;/div&gt;" style="whiteSpace=wrap;html=1;shape=mxgraph.basic.oval_callout" vertex="1" parent="1">
          <mxGeometry x="340" y="40" width="200" height="120" as="geometry" />
        </mxCell>
        <mxCell id="GrtUD7RfstWwwJECri5v-4" value="Sure it can.&lt;div&gt;Just ask ChatGpt or&lt;/div&gt;&lt;div&gt;Gemini&lt;/div&gt;" style="whiteSpace=wrap;html=1;shape=mxgraph.basic.oval_callout;flipH=1;" vertex="1" parent="1">
          <mxGeometry x="378.75" y="150" width="175" height="70" as="geometry" />
        </mxCell>
        <mxCell id="GrtUD7RfstWwwJECri5v-5" value="But then I need&lt;div&gt;&lt;span style=&quot;background-color: initial;&quot;&gt;to&amp;nbsp;&lt;/span&gt;&lt;span style=&quot;background-color: initial;&quot;&gt;give my organizations&lt;/span&gt;&lt;div&gt;&lt;span style=&quot;background-color: initial;&quot;&gt;sensitive&amp;nbsp;&lt;/span&gt;&lt;span style=&quot;background-color: initial;&quot;&gt;information to a 3rd&lt;/span&gt;&lt;/div&gt;&lt;div&gt;&lt;span style=&quot;background-color: initial;&quot;&gt;party LLM service provider.&lt;/span&gt;&lt;/div&gt;&lt;div&gt;&lt;span style=&quot;background-color: initial;&quot;&gt;Can&#39;t do that!&lt;/span&gt;&lt;/div&gt;&lt;/div&gt;" style="whiteSpace=wrap;html=1;shape=mxgraph.basic.oval_callout;flipV=1;" vertex="1" parent="1">
          <mxGeometry x="347.5" y="205" width="200" height="130" as="geometry" />
        </mxCell>
        <mxCell id="GrtUD7RfstWwwJECri5v-6" value="No problem.&amp;nbsp;&lt;span style=&quot;background-color: initial;&quot;&gt;You&lt;/span&gt;&lt;div&gt;can host an open&amp;nbsp;&lt;span style=&quot;background-color: initial;&quot;&gt;source&lt;/span&gt;&lt;/div&gt;&lt;div&gt;&lt;span style=&quot;background-color: initial;&quot;&gt;small&amp;nbsp;&lt;/span&gt;&lt;span style=&quot;background-color: initial;&quot;&gt;LLM&amp;nbsp;&lt;/span&gt;&lt;span style=&quot;background-color: initial;&quot;&gt;in your&amp;nbsp;&lt;/span&gt;&lt;span style=&quot;background-color: initial;&quot;&gt;company&lt;/span&gt;&lt;/div&gt;&lt;div&gt;&lt;span style=&quot;background-color: initial;&quot;&gt;server&amp;nbsp;&lt;/span&gt;&lt;span style=&quot;background-color: initial;&quot;&gt;or&amp;nbsp;&lt;/span&gt;&lt;span style=&quot;background-color: initial;&quot;&gt;even&amp;nbsp;&lt;/span&gt;&lt;span style=&quot;background-color: initial;&quot;&gt;in a&amp;nbsp;&lt;/span&gt;&lt;span style=&quot;background-color: initial;&quot;&gt;laptop&lt;/span&gt;&lt;/div&gt;" style="whiteSpace=wrap;html=1;shape=mxgraph.basic.oval_callout;flipH=1;flipV=1;" vertex="1" parent="1">
          <mxGeometry x="353.75" y="320" width="200" height="110" as="geometry" />
        </mxCell>
        <mxCell id="GrtUD7RfstWwwJECri5v-7" value="But will that be as good&lt;div&gt;as the the big models like ChatGpt?&lt;/div&gt;" style="whiteSpace=wrap;html=1;shape=mxgraph.basic.oval_callout" vertex="1" parent="1">
          <mxGeometry x="360" y="430" width="190" height="70" as="geometry" />
        </mxCell>
        <mxCell id="GrtUD7RfstWwwJECri5v-8" value="Not as it is.&lt;div&gt;But you can finetune the&lt;/div&gt;&lt;div&gt;model&amp;nbsp;&lt;span style=&quot;background-color: initial;&quot;&gt;to take&amp;nbsp;&lt;/span&gt;&lt;span style=&quot;background-color: initial;&quot;&gt;Architecture&lt;/span&gt;&lt;/div&gt;&lt;div&gt;Design Decisions&lt;/div&gt;" style="whiteSpace=wrap;html=1;shape=mxgraph.basic.oval_callout;flipH=1;" vertex="1" parent="1">
          <mxGeometry x="358.75" y="500" width="192.5" height="100" as="geometry" />
        </mxCell>
        <mxCell id="GrtUD7RfstWwwJECri5v-9" value="Moreover if you can&lt;div&gt;provide&amp;nbsp;&lt;span style=&quot;background-color: initial;&quot;&gt;the model with a few&lt;/span&gt;&lt;/div&gt;&lt;div&gt;&lt;span style=&quot;background-color: initial;&quot;&gt;similar&amp;nbsp;&lt;/span&gt;&lt;span style=&quot;background-color: initial;&quot;&gt;Design Decisions taken in&lt;/span&gt;&lt;/div&gt;&lt;div&gt;&lt;span style=&quot;background-color: initial;&quot;&gt;your organization previously,&lt;/span&gt;&lt;/div&gt;&lt;div&gt;&lt;span style=&quot;background-color: initial;&quot;&gt;it can perform&amp;nbsp;&lt;/span&gt;&lt;span style=&quot;background-color: initial;&quot;&gt;even better!&lt;/span&gt;&lt;/div&gt;" style="whiteSpace=wrap;html=1;shape=mxgraph.basic.oval_callout;flipH=1;flipV=1;" vertex="1" parent="1">
          <mxGeometry x="347.5" y="620" width="210" height="140" as="geometry" />
        </mxCell>
        <mxCell id="GrtUD7RfstWwwJECri5v-10" value="But finding similar&amp;nbsp;&lt;span style=&quot;background-color: initial;&quot;&gt;Design&lt;/span&gt;&lt;div&gt;&lt;span style=&quot;background-color: initial;&quot;&gt;Decisions will require huge&lt;/span&gt;&lt;/div&gt;&lt;div&gt;&lt;span style=&quot;background-color: initial;&quot;&gt;manual effort.&lt;/span&gt;&lt;/div&gt;" style="whiteSpace=wrap;html=1;shape=mxgraph.basic.oval_callout" vertex="1" parent="1">
          <mxGeometry x="355" y="770" width="200" height="80" as="geometry" />
        </mxCell>
        <mxCell id="GrtUD7RfstWwwJECri5v-11" value="Not at all.&amp;nbsp;&lt;span style=&quot;background-color: initial;&quot;&gt;LLM&lt;/span&gt;&lt;div&gt;based retrieval engine can&lt;/div&gt;&lt;div&gt;do that instantly&lt;/div&gt;" style="whiteSpace=wrap;html=1;shape=mxgraph.basic.oval_callout;flipH=1;flipV=1;" vertex="1" parent="1">
          <mxGeometry x="367.5" y="840" width="190" height="80" as="geometry" />
        </mxCell>
        <mxCell id="GrtUD7RfstWwwJECri5v-12" value="Great!&amp;nbsp;&lt;span style=&quot;background-color: initial;&quot;&gt;Lets make it!&lt;/span&gt;" style="whiteSpace=wrap;html=1;shape=mxgraph.basic.oval_callout;flipV=1;" vertex="1" parent="1">
          <mxGeometry x="360" y="920" width="147.5" height="40" as="geometry" />
        </mxCell>
        <mxCell id="GrtUD7RfstWwwJECri5v-13" value="That&#39;s Good!" style="whiteSpace=wrap;html=1;shape=mxgraph.basic.oval_callout;flipV=1;" vertex="1" parent="1">
          <mxGeometry x="362.5" y="590" width="100" height="40" as="geometry" />
        </mxCell>
        <mxCell id="GrtUD7RfstWwwJECri5v-14" value="Alice" style="image;html=1;image=img/lib/clip_art/people/Suit_Woman_Black_128x128.png" vertex="1" parent="1">
          <mxGeometry x="285" y="510" width="80" height="80" as="geometry" />
        </mxCell>
        <mxCell id="GrtUD7RfstWwwJECri5v-17" value="Bob" style="image;html=1;image=img/lib/clip_art/people/Suit_Man_128x128.png" vertex="1" parent="1">
          <mxGeometry x="540" y="570" width="80" height="80" as="geometry" />
        </mxCell>
        <mxCell id="GrtUD7RfstWwwJECri5v-18" value="Alice" style="image;html=1;image=img/lib/clip_art/people/Suit_Woman_Black_128x128.png" vertex="1" parent="1">
          <mxGeometry x="282.5" y="830" width="80" height="80" as="geometry" />
        </mxCell>
        <mxCell id="GrtUD7RfstWwwJECri5v-19" value="Bob" style="image;html=1;image=img/lib/clip_art/people/Suit_Man_128x128.png" vertex="1" parent="1">
          <mxGeometry x="540" y="800" width="80" height="80" as="geometry" />
        </mxCell>
      </root>
    </mxGraphModel>
  </diagram>
</mxfile>
